<svg width="82" height="22" viewBox="0 0 82 22" fill="none" xmlns="http://www.w3.org/2000/svg">
<path d="M29.841 4.11074L26.2843 12.0378L26.2313 4.13983C26.2297 3.90086 26.0406 3.72729 25.7817 3.72729H23.4748C23.2159 3.72729 22.9616 3.90086 22.8703 4.13983L19.9376 11.8072L19.3577 4.10953C19.3407 3.885 19.1558 3.72729 18.9093 3.72729H16.7813C16.4333 3.72729 16.1202 4.03369 16.144 4.35071L17.2001 18.3677C17.2171 18.5922 17.402 18.7499 17.6485 18.7499H20.0248C20.2835 18.7499 20.538 18.5763 20.6293 18.3374L23.0942 11.8931L23.1375 18.3374C23.1391 18.5763 23.3283 18.7499 23.5871 18.7499H26.0836C26.3305 18.7499 26.5751 18.5916 26.6761 18.3667L32.9651 4.34971C33.1073 4.03288 32.9092 3.72729 32.5617 3.72729H30.4339C30.1864 3.72729 29.942 3.88561 29.841 4.11074Z" fill="#1D1D1B"/>
<path d="M35.5949 18.7507H33.076C32.7993 18.7507 32.6146 18.5256 32.6634 18.2479L35.7457 0.70351C35.7944 0.425811 36.0583 0.200684 36.335 0.200684H38.8539C39.1306 0.200684 39.3153 0.425811 39.2666 0.70351L36.1843 18.2479C36.1355 18.5256 35.8716 18.7507 35.5949 18.7507Z" fill="#1D1D1B"/>
<path d="M14.4619 6.15873C14.7509 2.73786 12.409 0.0337091 8.94063 0C5.46045 0.0337091 2.16839 2.73806 1.25561 6.15873C0.753848 8.03861 -0.173924 12.5386 0.0313804 14.1323C0.400009 16.9946 2.46345 19.2005 5.56221 19.2314C8.67176 19.2005 11.5102 16.9946 12.8846 14.1323C13.6498 12.5386 14.3029 8.03861 14.4619 6.15873ZM9.34864 13.545C8.7783 14.7188 7.4999 15.5361 6.2065 15.5632C4.9225 15.5361 3.93136 14.7188 3.77343 13.545C3.56933 12.0273 4.42754 7.05964 5.08143 5.83548C5.72893 4.62356 6.95156 3.69837 8.29593 3.66847C9.62971 3.69837 10.5275 4.62336 10.7492 5.83548C10.9733 7.05964 10.0859 12.0273 9.34864 13.545Z" fill="#1D1D1B"/>
<path d="M74.1552 7.97945L78.1476 0.530551C78.2537 0.332711 78.464 0.200684 78.6737 0.200684H81.3491C81.6943 0.200684 81.8742 0.544596 81.6997 0.87045L70.8985 21.024C70.7924 21.2219 70.5821 21.3539 70.3724 21.3539H67.697C67.3518 21.3539 67.1719 21.01 67.3464 20.6841L71.3927 13.1343L74.1552 7.97945Z" fill="#1D1D1B"/>
<path d="M48.2736 0.20289L42.7802 0.200684C42.5039 0.200684 42.2406 0.42541 42.1919 0.702707L39.1029 18.2866C39.0541 18.5639 39.2386 18.7886 39.5147 18.7886H42.0277C42.304 18.7886 42.5673 18.5639 42.6161 18.2866L43.7707 11.7143H46.2514C49.1092 11.7143 51.8877 9.13237 52.4453 5.95831C53.0026 2.78484 51.1313 0.20289 48.2736 0.20289ZM46.8735 8.17247H44.3928L45.1707 3.74475H47.6515C48.5487 3.74475 49.1274 4.75883 48.9167 5.95831C48.7056 7.15839 47.7707 8.17247 46.8735 8.17247Z" fill="#1D1D1B"/>
<path d="M72.9551 0.200684H68.9779L70.546 9.47589L65.6457 18.7509H69.623L74.5233 9.47589L72.9551 0.200684Z" fill="url(#paint0_linear_144_124)"/>
<path d="M65.5164 3.74871L63.1189 3.74791C62.8778 3.74791 62.6525 3.94013 62.5796 4.18533C62.0128 3.90803 61.3532 3.7764 60.6403 3.72062C60.1287 3.68932 59.4215 3.69073 58.8901 3.72343C56.1472 3.83218 53.7605 5.89646 52.9201 8.63251C52.4063 10.3053 52.1852 11.7566 52.0455 13.3542C51.7872 16.3021 53.4976 18.6965 56.3315 18.6975C56.8728 18.7173 57.4366 18.7165 58.0187 18.6981C58.7398 18.6983 59.4414 18.5406 60.1015 18.2613C60.0883 18.5065 60.2457 18.6989 60.487 18.6989L62.8844 18.6997C63.1463 18.6997 63.398 18.4766 63.4464 18.2009L65.9026 4.24773C65.9512 3.97224 65.7781 3.74891 65.5164 3.74871ZM58.7612 15.1293C58.5059 15.2166 58.1099 15.2736 57.7003 15.2891C57.2969 15.2726 56.9232 15.2144 56.7019 15.1265C56.0142 14.8534 55.5299 14.2752 55.5621 13.3903C55.6122 12.008 55.9783 10.1276 56.4464 8.90961C56.7359 8.15657 57.3452 7.56606 58.0267 7.35779C58.4069 7.24161 58.8477 7.17781 59.2797 7.176C59.7107 7.17921 60.1265 7.24402 60.4612 7.3612C61.0611 7.57108 61.4403 8.163 61.4365 8.91643C61.4351 9.20015 61.4103 9.5256 61.3727 9.86651L60.8776 12.4105C60.784 12.7536 60.6847 13.0907 60.5763 13.3973C60.2641 14.2814 59.5548 14.8581 58.7612 15.1293Z" fill="#1D1D1B"/>
<defs>
<linearGradient id="paint0_linear_144_124" x1="66.6736" y1="18.9554" x2="73.3347" y2="0.569004" gradientUnits="userSpaceOnUse">
<stop stop-color="#00E1FF"/>
<stop offset="0.142" stop-color="#668BD5"/>
<stop offset="0.2095" stop-color="#A37290"/>
<stop offset="0.2706" stop-color="#D65D57"/>
<stop offset="0.3" stop-color="#E95541"/>
<stop offset="1" stop-color="#F9BF16"/>
</linearGradient>
</defs>
</svg>
