<svg xmlns="http://www.w3.org/2000/svg" width="122" height="32" fill="none" xmlns:v="https://vecta.io/nano"><path d="M58.055.299h-3.764c-.413 0-.808.336-.881.751l-4.606 26.204a.61.61 0 0 0 .617.751h3.764c.413 0 .807-.336.881-.751L58.672 1.05a.61.61 0 0 0-.617-.751zm-9.402 5.269h-3.18a1 1 0 0 0-.885.573l-5.315 11.84-.079-11.797c-.003-.357-.285-.616-.672-.616h-3.447c-.387 0-.767.259-.903.616l-4.383 11.452-.867-11.497c-.025-.335-.302-.571-.67-.571h-3.18c-.52 0-.988.458-.952.931l1.578 20.936c.026.335.302.571.67.571h3.551c.387 0 .767-.259.903-.616l3.683-9.625.065 9.625c.002.357.285.616.672.616h3.73a1 1 0 0 0 .885-.573l9.397-20.936a.63.63 0 0 0-.602-.93zM13.357 0c-5.2.051-10.12 4.09-11.484 9.199-.75 2.808-2.136 9.529-1.83 11.909.551 4.275 3.634 7.57 8.265 7.616 4.647-.046 8.888-3.341 10.942-7.616 1.143-2.381 2.119-9.102 2.357-11.909C22.039 4.09 18.539.051 13.357 0zm.61 20.231a5.51 5.51 0 0 1-4.695 3.015c-1.919-.04-3.4-1.261-3.635-3.015-.305-2.267.977-9.687 1.955-11.515.968-1.81 2.794-3.192 4.803-3.237 1.993.045 3.334 1.426 3.666 3.237.334 1.828-.991 9.248-2.093 11.515zM121.375.405h-3.998c-.313 0-.628.197-.787.493l-5.222 9.74.443 2.618a3.42 3.42 0 0 1-.346 2.155l-6.737 12.747c-.245.463-.722.751-1.245.751h-1.911L100.451 31c-.261.486.008 1 .524 1h3.998c.313 0 .628-.197.786-.493l16.14-30.101c.261-.486-.008-1-.524-1zm-17.349 27.379l6.737-12.747a2.6 2.6 0 0 0 .265-1.648L108.919.918c-.05-.296-.306-.513-.606-.513h-4.697c-.38 0-.669.343-.605.719l2.074 12.265a2.6 2.6 0 0 1-.265 1.648l-6.432 12.17c-.217.41.08.905.543.905h4.553c.227 0 .435-.126.542-.327zM71.951.409L63.743.406c-.413 0-.806.335-.879.75l-4.616 26.263a.61.61 0 0 0 .616.75h3.755c.413 0 .806-.335.879-.75l1.725-9.816h3.707c4.27 0 8.422-3.857 9.256-8.597S76.222.409 71.951.409zm.961 8.596c-.315 1.793-1.713 3.307-3.053 3.307h-3.707l1.162-6.614h3.707c1.341.001 2.205 1.515 1.891 3.307zm24.804-3.299l-3.582-.001c-.36 0-.697.287-.806.653-.847-.414-1.832-.611-2.898-.694a23.77 23.77 0 0 0-2.615.004C83.716 5.83 80.15 8.913 78.894 13c-.768 2.499-1.098 4.666-1.307 7.052-.386 4.403 2.17 7.979 6.404 7.981.809.03 1.651.028 2.521 0 1.077.001 2.126-.235 3.112-.652-.02.366.215.653.576.654l3.582.001c.392 0 .767-.333.84-.745l3.67-20.841c.073-.411-.186-.745-.577-.745zm-6.192 9.138l-.74 3.8c-.14.512-.288 1.016-.45 1.474-.467 1.321-1.526 2.182-2.712 2.587-.382.13-.973.216-1.585.239-.603-.024-1.161-.112-1.492-.242-1.027-.408-1.751-1.271-1.704-2.593.075-2.065.622-4.873 1.322-6.692.432-1.125 1.343-2.007 2.361-2.318a6.68 6.68 0 0 1 1.872-.272c.644.005 1.265.101 1.765.276.897.314 1.463 1.198 1.457 2.323-.002.423-.039.909-.095 1.418z" fill="#fff"/><path d="M104.024 27.785l6.737-12.747a2.6 2.6 0 0 0 .265-1.648L108.916.918c-.05-.296-.305-.513-.605-.513h-4.697c-.38 0-.669.343-.606.719l2.075 12.265a2.6 2.6 0 0 1-.265 1.648l-6.432 12.17c-.217.41.079.905.543.905h4.554c.226 0 .435-.126.542-.327z" fill="url(#A)"/><defs><linearGradient id="A" x1="99.79" y1="28.417" x2="110.04" y2="1.214" gradientUnits="userSpaceOnUse"><stop stop-color="#00e1ff"/><stop offset=".142" stop-color="#668bd5"/><stop offset=".21" stop-color="#a37290"/><stop offset=".271" stop-color="#d65d57"/><stop offset=".3" stop-color="#e95541"/><stop offset="1" stop-color="#f9bf16"/></linearGradient></defs></svg>