<svg width="136" height="30" viewBox="0 0 136 30" fill="none" xmlns="http://www.w3.org/2000/svg">
<path d="M7.60388 23.061C11.6928 19.6885 17.233 18.7334 22.1885 20.5134C21.3839 21.7209 20.4095 22.7994 19.2776 23.7328L19.277 23.7334C18.9352 24.0155 18.5798 24.2739 18.2185 24.5221C16.755 25.2246 15.0592 25.4269 13.4156 24.9927C13.7132 25.1805 14.0233 25.354 14.3559 25.4993C14.7937 25.6897 15.2407 25.8261 15.6905 25.9217C12.2405 27.4157 8.31215 27.5808 4.69344 26.281C5.49766 25.0729 6.47161 23.9942 7.60388 23.061Z" fill="url(#paint0_linear_127_638)"/>
<path d="M40.4833 23.353C37.1408 22.2761 33.4945 23.0434 30.8769 25.352C31.668 25.8992 32.5314 26.3248 33.4565 26.6232H33.4571C33.7364 26.7133 34.0191 26.7855 34.3021 26.8503C35.3756 26.9253 36.4691 26.6344 37.3757 25.965C37.2382 26.1532 37.0898 26.3362 36.9201 26.5068C36.6968 26.7313 36.4547 26.9243 36.2013 27.0937C38.6915 27.1697 41.1513 26.3108 43.0629 24.6247C42.2726 24.0775 41.4092 23.6513 40.4833 23.353Z" fill="url(#paint1_linear_127_638)"/>
<path d="M23.6747 25.1009C24.3154 23.1123 25.5754 21.3269 27.2842 20.2014C24.9785 18.6546 23.7161 15.8134 24.318 12.9275C24.7062 11.0661 25.7977 9.53272 27.2562 8.54492L28.579 4.76128C28.6368 4.59615 28.8529 4.55903 28.963 4.69446L30.8707 7.04848C31.3069 7.06634 31.7465 7.1155 32.1881 7.2076L40.6028 8.96368C41.0216 9.05096 41.424 9.17295 41.811 9.32023L44.4814 7.93515C44.6377 7.85429 44.8228 7.97608 44.8094 8.15205L44.5108 12.1458C45.4525 13.6348 45.841 15.4768 45.4525 17.3388C44.6973 20.9629 41.2781 23.3454 37.6692 22.8717C37.6422 23.0563 37.5956 23.2407 37.5246 23.4225C36.0627 27.1559 32.4304 29.8003 28.1808 29.8003C25.5628 29.8003 23.1805 28.794 21.393 27.237C22.3785 26.8502 23.4396 25.8311 23.6747 25.1009Z" fill="url(#paint2_linear_127_638)"/>
<path d="M45.4526 17.3381C45.8408 15.4767 45.4526 13.6347 44.5104 12.1451L44.8093 8.15136C44.8221 7.97559 44.6378 7.8536 44.4812 7.93446L41.8109 9.31954C41.4231 9.17226 41.0209 9.05027 40.6026 8.96299L32.1874 7.2073C31.7464 7.11501 31.3062 7.06545 30.87 7.04819L28.9623 4.69417C28.8523 4.55813 28.636 4.59605 28.5783 4.76099L27.2555 8.54463C25.797 9.53303 24.7049 11.0658 24.3172 12.9272C23.7155 15.8138 24.9777 18.6543 27.2835 20.2011C31.2198 23.2484 37.6684 22.8708 37.6684 22.8708C39.9995 23.2101 42.0668 22.145 42.6945 21.5937C44.0626 20.6039 45.0806 19.1219 45.4526 17.3381Z" fill="url(#paint3_linear_127_638)"/>
<path d="M44.6776 7.93363C44.6183 7.90614 44.5475 7.90293 44.4813 7.93684L41.811 9.32172C41.4231 9.17444 41.0209 9.05245 40.6023 8.96517L32.1877 7.20949C31.7467 7.11719 31.3065 7.06763 30.8703 7.05037L28.9626 4.69635C28.8946 4.61208 28.7884 4.60145 28.7021 4.63917L29.5551 9.2527L34.5146 15.5852L42.532 12.7137L44.6776 7.93363Z" fill="url(#paint4_linear_127_638)"/>
<path d="M44.2926 16.6152C44.78 14.3864 43.6262 12.0924 41.5481 11.1612C41.2455 11.0257 40.9262 10.9206 40.6 10.8487C38.1925 10.321 35.8064 11.6969 35.0054 13.965C35.2763 11.8707 34.14 9.79654 32.1897 8.92252C31.8872 8.78708 31.568 8.68194 31.2417 8.61011C28.6346 8.03926 26.0496 9.69622 25.4784 12.3049C24.9911 14.5337 26.1449 16.8277 28.2232 17.7589C28.5256 17.8943 28.8449 17.9995 29.1711 18.0713C31.5788 18.599 33.9647 17.2232 34.7657 14.955C34.495 17.0494 35.6319 19.1235 37.5816 19.9975C37.8842 20.133 38.2035 20.2381 38.5293 20.31C41.1365 20.8806 43.7213 19.2238 44.2926 16.6152Z" fill="url(#paint5_linear_127_638)"/>
<path d="M31.2558 21.703C31.2552 21.7002 31.2548 21.697 31.2542 21.6943C31.1738 21.2385 30.6966 20.9568 30.2608 21.1117C26.8587 22.3192 24.5043 25.4328 24.2174 28.9877C25.4345 29.5002 26.7713 29.7992 28.1815 29.7992C28.3454 29.7992 28.5062 29.7879 28.6679 29.7803C30.7252 27.7439 31.7918 24.7723 31.2558 21.703Z" fill="url(#paint6_linear_127_638)"/>
<path d="M30.6578 21.0089C31.101 20.9997 31.4511 21.4006 31.3863 21.8398C31.3857 21.8426 31.3853 21.8453 31.3853 21.8479C30.7074 26.4182 26.6215 29.6365 22.0903 29.3112C22.1055 29.0399 22.1313 28.7668 22.1717 28.4928C22.809 24.1969 26.458 21.0952 30.6578 21.0089Z" fill="url(#paint7_linear_127_638)"/>
<path d="M29.9923 17.5263C32.3833 17.5263 34.3215 15.5871 34.3215 13.1949C34.3215 10.8028 32.3831 8.86353 29.9923 8.86353C27.6014 8.86353 25.6632 10.8028 25.6632 13.1949C25.6632 15.5873 27.6014 17.5263 29.9923 17.5263Z" fill="white"/>
<path d="M28.264 16.0116C29.4467 16.0116 30.4053 15.0523 30.4053 13.8691C30.4053 12.6859 29.4465 11.7266 28.264 11.7266C27.0813 11.7266 26.1228 12.6859 26.1228 13.8691C26.1228 15.0523 27.0813 16.0116 28.264 16.0116Z" fill="#4D4A49"/>
<path d="M39.8276 19.917C42.2182 19.917 44.1565 17.9777 44.1565 15.5856C44.1565 13.1934 42.2182 11.2542 39.8276 11.2542C37.4366 11.2542 35.4983 13.1934 35.4983 15.5856C35.4983 17.9777 37.4366 19.917 39.8276 19.917Z" fill="white"/>
<path d="M38.4155 18.4765C39.5982 18.4765 40.5568 17.5172 40.5568 16.3339C40.5568 15.1507 39.598 14.1914 38.4155 14.1914C37.2332 14.1914 36.2742 15.1505 36.2742 16.3339C36.2742 17.5172 37.2332 18.4765 38.4155 18.4765Z" fill="#4D4A49"/>
<path d="M25.9135 26.5298L26.6705 25.3034C26.4063 24.9986 26.2083 24.6884 26.1168 24.4045C25.3537 22.0358 23.8526 19.9092 21.8176 18.569C24.5639 16.7265 26.0672 13.3431 25.3505 9.90519C24.8884 7.68822 23.5878 5.86191 21.851 4.6853L20.2747 0.178122C20.2061 -0.0183139 19.9485 -0.0630587 19.8175 0.0982632L17.5452 2.90213C17.0258 2.9232 16.5023 2.98199 15.9765 3.09155L5.9544 5.18331C5.45563 5.28745 4.97665 5.43252 4.51527 5.60789L1.33495 3.95855C1.14844 3.86204 0.92834 4.00711 0.943933 4.21699L1.29977 8.97338C0.177691 10.7467 -0.284494 12.941 0.177691 15.158C1.07767 19.4741 5.14997 22.3121 9.44857 21.7479C9.48035 21.9674 9.53592 22.1875 9.62068 22.404C11.3613 26.8508 15.6881 30 20.7493 30C23.1026 30 25.2956 29.318 27.1445 28.1424L25.9135 26.5298Z" fill="url(#paint8_linear_127_638)"/>
<path d="M25.3506 9.90559C24.8884 7.68861 23.5878 5.86231 21.851 4.6857L20.2747 0.179121C20.2061 -0.0173145 19.9485 -0.0620592 19.8175 0.0992627L17.5452 2.90293C17.0258 2.924 16.5023 2.98279 15.9765 3.09235L5.9544 5.18411C5.45563 5.28825 4.97665 5.43332 4.51527 5.60869L1.33495 3.95935C1.14844 3.86284 0.928341 4.00791 0.943933 4.21779L1.29977 8.97417C0.177691 10.7475 -0.284494 12.9418 0.177691 15.1588C1.07767 19.4749 5.14997 22.3129 9.44857 21.7487C13.3947 21.2378 19.6054 20.1463 21.8174 18.5692C24.5637 16.7267 26.0672 13.3433 25.3506 9.90559Z" fill="url(#paint9_linear_127_638)"/>
<path d="M12.5346 11.0507L19.0048 5.51358L20.0735 0.00556274C19.9829 -0.0116931 19.8842 0.0167991 19.818 0.0988646L17.5457 2.90274C17.0265 2.9238 16.5028 2.98259 15.977 3.09215L5.95448 5.18331C5.45571 5.28745 4.97674 5.43252 4.51535 5.60789L1.33504 3.95855C1.23948 3.90879 1.13533 3.92344 1.05836 3.97741L3.9944 8.39671L12.5346 11.0507Z" fill="url(#paint10_linear_127_638)"/>
<path d="M23.1875 9.51323C22.6681 7.02377 20.4498 5.21753 17.9122 5.21753C17.5427 5.21753 17.1701 5.25585 16.8057 5.3319C14.1165 5.89311 12.3166 8.37976 12.5351 11.052C11.8568 8.79831 9.75637 7.20737 7.37528 7.20737C7.00585 7.20737 6.63323 7.24569 6.2688 7.32174C3.35736 7.9291 1.48243 10.7936 2.08895 13.707C2.60831 16.1964 4.82667 18.0027 7.36429 18.0027C7.73371 18.0027 8.10634 17.9644 8.47077 17.8883C11.1599 17.3273 12.9599 14.8405 12.7414 12.1682C13.4197 14.4219 15.5201 16.0129 17.9012 16.0129C18.2706 16.0129 18.6432 15.9745 19.0076 15.8985C21.9197 15.2905 23.7946 12.4267 23.1875 9.51323Z" fill="url(#paint11_linear_127_638)"/>
<path d="M6.97819 16.9562C9.5007 16.9562 11.5456 14.9102 11.5456 12.3864C11.5456 9.86267 9.5007 7.81665 6.97819 7.81665C4.45567 7.81665 2.41075 9.86267 2.41075 12.3864C2.41075 14.9102 4.45567 16.9562 6.97819 16.9562Z" fill="white"/>
<path d="M6.01867 13.0539C7.06782 13.0539 7.91845 12.203 7.91845 11.1532C7.91845 10.1034 7.06782 9.25244 6.01867 9.25244C4.96952 9.25244 4.11889 10.1034 4.11889 11.1532C4.11889 12.203 4.96952 13.0539 6.01867 13.0539Z" fill="#4D4A49"/>
<path d="M26.047 28.7541C25.8539 24.5021 23.204 20.8716 19.2065 19.2524C18.6905 19.0435 18.0918 19.1649 17.9716 19.7082C17.971 19.7114 17.97 19.7153 17.9694 19.7185C17.1184 23.5842 18.4133 27.4208 21.0571 29.9889C22.8465 29.9437 24.5366 29.5045 26.047 28.7541Z" fill="url(#paint12_linear_127_638)"/>
<path d="M11.6627 17.6281C11.9965 18.7423 13.2454 20.1061 15.5086 20.3808C15.6683 20.4002 15.7853 20.2367 15.7167 20.091C15.0292 18.6209 15.7873 17.4064 15.2681 16.1752C15.0244 15.5969 14.099 14.5409 12.78 15.0794C11.6789 15.5283 11.4108 16.786 11.6627 17.6281Z" fill="url(#paint13_linear_127_638)"/>
<path d="M18.0091 14.654C20.5316 14.654 22.5765 12.608 22.5765 10.0842C22.5765 7.56042 20.5316 5.5144 18.0091 5.5144C15.4865 5.5144 13.4414 7.56022 13.4414 10.0842C13.4414 12.6082 15.4863 14.654 18.0091 14.654Z" fill="white"/>
<path d="M17.709 13.2978C18.7582 13.2978 19.6088 12.4469 19.6088 11.3971C19.6088 10.3473 18.7582 9.49634 17.709 9.49634C16.6599 9.49634 15.8092 10.3473 15.8092 11.3971C15.8092 12.4469 16.6599 13.2978 17.709 13.2978Z" fill="#4D4A49"/>
<path d="M18.7755 19.0005C18.2507 18.9401 17.7913 19.3765 17.8189 19.9042C17.8189 19.9074 17.8195 19.9106 17.8195 19.914C18.114 25.4092 22.6003 29.681 28.0094 29.8008C28.0217 29.4776 28.0217 29.1513 28.004 28.8216C27.7267 23.6561 23.7455 19.5713 18.7755 19.0005Z" fill="url(#paint14_linear_127_638)"/>
<path d="M11.547 16.7596C11.5442 17.7755 12.2481 19.235 14.0841 20.0302C14.199 20.0797 14.3224 19.9784 14.303 19.8548C14.0851 18.4428 15.0337 17.6212 14.9107 16.459C14.8535 15.9169 14.3494 14.8059 13.1171 14.9215C12.0883 15.0176 11.5492 15.9957 11.547 16.7596Z" fill="#FCD140"/>
<path d="M12.7454 15C11.9585 15.2661 11.5487 16.0935 11.5471 16.7595C11.5445 17.7824 12.2578 19.2544 14.1216 20.0463C14.1728 20.068 14.2153 20.0026 14.1766 19.9627C12.651 18.406 12.2698 15.9328 12.7454 15Z" fill="url(#paint15_linear_127_638)"/>
<path d="M34.9601 19.8091C34.4895 20.6243 33.2502 21.4655 31.4152 21.2588C31.2859 21.2442 31.2243 21.0937 31.3052 20.9917C32.1217 19.9618 31.7513 18.8626 32.3902 17.9898C32.6906 17.5797 33.6171 16.921 34.5558 17.5917C35.3397 18.1517 35.3165 19.1925 34.9601 19.8091Z" fill="url(#paint16_linear_127_638)"/>
<path d="M35.239 19.0733C35.0991 19.833 34.3702 20.8246 32.8872 21.1629C32.7944 21.184 32.7163 21.0911 32.7481 21.001C33.1077 19.9765 32.5136 19.2302 32.7675 18.3795C32.886 17.9824 33.4172 17.2227 34.3216 17.4812C35.0775 17.6969 35.3439 18.5025 35.239 19.0733Z" fill="#FCD140"/>
<path d="M34.5889 17.5923C35.1395 17.9009 35.3304 18.5765 35.2392 19.0739C35.0983 19.8383 34.361 20.8386 32.8581 21.1699C32.8171 21.1791 32.7939 21.1239 32.8285 21.0996C34.1837 20.1502 34.8138 18.3558 34.5889 17.5923Z" fill="url(#paint17_linear_127_638)"/>
<path d="M6.31573 29.5481C8.21267 29.5481 9.75045 28.0104 9.75045 26.1134C9.75045 24.2165 8.21267 22.6787 6.31573 22.6787C4.41878 22.6787 2.881 24.2165 2.881 26.1134C2.881 28.0104 4.41878 29.5481 6.31573 29.5481Z" fill="#FCD140"/>
<path d="M6.31561 28.8269C7.81486 28.8269 9.03025 27.6115 9.03025 26.1123C9.03025 24.6131 7.81486 23.3977 6.31561 23.3977C4.81636 23.3977 3.60098 24.6131 3.60098 26.1123C3.60098 27.6115 4.81636 28.8269 6.31561 28.8269Z" fill="url(#paint18_linear_127_638)"/>
<path d="M8.36436 24.7088C8.30299 24.5503 8.14146 24.4062 7.92715 24.3167C7.73263 24.2332 7.45415 24.2144 7.17587 24.2788L7.07951 24.3031C6.69188 24.394 6.35542 24.4808 5.9468 24.5814C5.39304 24.7168 5.16294 24.8051 5.10916 24.666C5.08417 24.6012 5.10376 24.4975 5.16154 24.346C5.17193 24.3185 5.15854 24.3019 5.13775 24.2846C5.08097 24.238 4.98042 24.215 4.90525 24.2487C4.83028 24.2824 4.81129 24.3974 4.85527 24.5107C4.88905 24.598 4.98541 24.7106 5.14914 24.7965C5.42582 24.9379 5.59035 25.0348 6.25127 24.8853C6.31484 24.8703 6.38501 24.8536 6.45738 24.8362C6.31904 25.4851 6.20629 26.0634 6.06435 26.7564C5.86384 27.7293 5.82445 28.1561 5.59715 28.1447C5.4914 28.1395 5.36325 28.0359 5.19692 27.8391C5.16654 27.8034 5.13455 27.8132 5.09637 27.8341C4.99321 27.8919 4.89185 28.0353 4.88566 28.178C4.87966 28.3205 5.0232 28.4306 5.20832 28.4396C5.35106 28.4467 5.57156 28.372 5.80266 28.172C6.1881 27.8311 6.43479 27.6376 6.69068 26.4845C6.82962 25.8342 6.94037 25.2283 7.03833 24.793L7.05912 24.6881C7.15328 24.6646 7.21366 24.6496 7.21366 24.6496L7.31001 24.6253C8.0381 24.4305 8.12986 24.4764 8.15745 24.5477C8.18244 24.6125 8.14865 24.7341 8.07668 24.8577C8.06029 24.888 8.06649 24.904 8.08968 24.9277C8.12646 24.9682 8.26181 25.0174 8.32778 24.9877C8.39675 24.9564 8.41434 24.8382 8.36436 24.7088Z" fill="white"/>
<path d="M43.0632 29.4913C44.8055 29.4913 46.218 28.0788 46.218 26.3364C46.218 24.5941 44.8055 23.1816 43.0632 23.1816C41.3208 23.1816 39.9083 24.5941 39.9083 26.3364C39.9083 28.0788 41.3208 29.4913 43.0632 29.4913Z" fill="#FCD140"/>
<path d="M43.0633 28.8312C44.441 28.8312 45.5578 27.7144 45.5578 26.3368C45.5578 24.9591 44.441 23.8423 43.0633 23.8423C41.6856 23.8423 40.5688 24.9591 40.5688 26.3368C40.5688 27.7144 41.6856 28.8312 43.0633 28.8312Z" fill="url(#paint19_linear_127_638)"/>
<path d="M44.9449 25.0469C44.8885 24.9013 44.7402 24.769 44.5432 24.6868C44.3647 24.6101 44.1086 24.5927 43.8533 24.6519L43.765 24.6743C43.4089 24.7578 43.0999 24.8377 42.7246 24.93C42.216 25.0544 42.0047 25.1354 41.9551 25.0076C41.9322 24.9482 41.9502 24.8527 42.0031 24.7137C42.0127 24.6884 42.0003 24.6729 41.9813 24.6571C41.9292 24.6143 41.8368 24.5931 41.7678 24.6242C41.6989 24.6553 41.6815 24.7608 41.7219 24.8647C41.7528 24.945 41.8414 25.0483 41.9917 25.1272C42.246 25.257 42.397 25.3461 43.0041 25.2089C43.0625 25.195 43.1268 25.1798 43.1934 25.1637C43.0663 25.7598 42.9629 26.291 42.8324 26.9274C42.6483 27.8211 42.6121 28.213 42.4034 28.2027C42.3062 28.1979 42.1886 28.1028 42.0357 27.922C42.0079 27.8891 41.9783 27.8982 41.9434 27.9174C41.8486 27.9704 41.7554 28.1024 41.7498 28.2332C41.7442 28.3641 41.8762 28.4652 42.0461 28.4736C42.1773 28.48 42.3798 28.4114 42.5919 28.2278C42.9459 27.9146 43.1726 27.737 43.4075 26.6778C43.5353 26.0805 43.6368 25.5239 43.7268 25.1242L43.746 25.0279C43.8323 25.0064 43.8879 24.9924 43.8879 24.9924L43.9763 24.9699C44.645 24.7909 44.7294 24.8332 44.7547 24.8987C44.7777 24.958 44.7466 25.0698 44.6806 25.1834C44.6654 25.2111 44.6712 25.2259 44.6926 25.2478C44.7264 25.2849 44.8507 25.3303 44.9113 25.3028C44.9747 25.2745 44.9908 25.1659 44.9449 25.0469Z" fill="white"/>
<path d="M84.0736 12.5458L80.5169 20.4728L80.4639 12.5749C80.4623 12.3359 80.2732 12.1624 80.0143 12.1624H77.7074C77.4485 12.1624 77.1942 12.3359 77.1029 12.5749L74.1703 20.2423L73.5903 12.5446C73.5733 12.3201 73.3884 12.1624 73.1419 12.1624H71.0139C70.6659 12.1624 70.3528 12.4687 70.3766 12.7858L71.4327 26.8027C71.4497 27.0272 71.6346 27.185 71.8811 27.185H74.2574C74.5161 27.185 74.7706 27.0114 74.8619 26.7724L77.3268 20.3282L77.3702 26.7724C77.3718 27.0114 77.5609 27.185 77.8198 27.185H80.3162C80.5631 27.185 80.8078 27.0266 80.9087 26.8017L87.1978 12.7848C87.3399 12.4679 87.1418 12.1624 86.7944 12.1624H84.6666C84.4191 12.1624 84.1746 12.3207 84.0736 12.5458Z" fill="#1D1D1B"/>
<path d="M89.8276 27.1858H87.3086C87.032 27.1858 86.8472 26.9606 86.896 26.6829L89.9783 9.13857C90.0271 8.86087 90.291 8.63574 90.5676 8.63574H93.0866C93.3632 8.63574 93.548 8.86087 93.4992 9.13857L90.4169 26.6829C90.3681 26.9606 90.1042 27.1858 89.8276 27.1858Z" fill="#1D1D1B"/>
<path d="M68.6945 14.5938C68.9836 11.1729 66.6416 8.46877 63.1733 8.43506C59.6931 8.46877 56.401 11.1731 55.4882 14.5938C54.9865 16.4737 54.0587 20.9736 54.264 22.5674C54.6326 25.4296 56.6961 27.6356 59.7948 27.6665C62.9044 27.6356 65.7429 25.4296 67.1172 22.5674C67.8825 20.9736 68.5356 16.4737 68.6945 14.5938ZM63.5813 21.9801C63.0109 23.1539 61.7325 23.9711 60.4391 23.9982C59.1551 23.9711 58.164 23.1539 58.0061 21.9801C57.802 20.4624 58.6602 15.4947 59.3141 14.2705C59.9616 13.0586 61.1842 12.1334 62.5286 12.1035C63.8623 12.1334 64.7601 13.0584 64.9818 14.2705C65.2059 15.4947 64.3185 20.4624 63.5813 21.9801Z" fill="#1D1D1B"/>
<path d="M128.388 16.4145L132.38 8.96561C132.486 8.76777 132.697 8.63574 132.906 8.63574H135.582C135.927 8.63574 136.107 8.97965 135.932 9.30551L125.131 29.4591C125.025 29.6569 124.815 29.789 124.605 29.789H121.93C121.584 29.789 121.405 29.4451 121.579 29.1192L125.625 21.5694L128.388 16.4145Z" fill="#1D1D1B"/>
<path d="M102.506 8.63795L97.0128 8.63574C96.7366 8.63574 96.4733 8.86047 96.4245 9.13777L93.3355 26.7216C93.2868 26.9989 93.4713 27.2237 93.7474 27.2237H96.2604C96.5367 27.2237 96.7999 26.9989 96.8487 26.7216L98.0034 20.1494H100.484C103.342 20.1494 106.12 17.5674 106.678 14.3934C107.235 11.2199 105.364 8.63795 102.506 8.63795ZM101.106 16.6075H98.6255L99.4033 12.1798H101.884C102.781 12.1798 103.36 13.1939 103.149 14.3934C102.938 15.5934 102.003 16.6075 101.106 16.6075Z" fill="#1D1D1B"/>
<path d="M127.188 8.63574H123.21L124.779 17.911L119.878 27.186H123.856L128.756 17.911L127.188 8.63574Z" fill="url(#paint20_linear_127_638)"/>
<path d="M119.749 12.1838L117.352 12.183C117.11 12.183 116.885 12.3752 116.812 12.6204C116.245 12.3431 115.586 12.2115 114.873 12.1557C114.361 12.1244 113.654 12.1258 113.123 12.1585C110.38 12.2672 107.993 14.3315 107.153 17.0676C106.639 18.7404 106.418 20.1917 106.278 21.7892C106.02 24.7372 107.73 27.1315 110.564 27.1325C111.105 27.1524 111.669 27.1516 112.251 27.1331C112.972 27.1333 113.674 26.9756 114.334 26.6963C114.321 26.9415 114.478 27.1339 114.72 27.1339L117.117 27.1347C117.379 27.1347 117.631 26.9116 117.679 26.6359L120.135 12.6828C120.184 12.4073 120.011 12.184 119.749 12.1838ZM112.994 23.5644C112.739 23.6517 112.343 23.7087 111.933 23.7241C111.529 23.7077 111.156 23.6495 110.935 23.5616C110.247 23.2885 109.763 22.7102 109.795 21.8254C109.845 20.4431 110.211 18.5626 110.679 17.3447C110.969 16.5916 111.578 16.0011 112.259 15.7928C112.64 15.6767 113.08 15.6129 113.512 15.6111C113.943 15.6143 114.359 15.6791 114.694 15.7963C115.294 16.0061 115.673 16.5981 115.669 17.3515C115.668 17.6352 115.643 17.9607 115.605 18.3016L115.11 20.8456C115.017 21.1887 114.917 21.5258 114.809 21.8324C114.497 22.7164 113.787 23.2931 112.994 23.5644Z" fill="#1D1D1B"/>
<defs>
<linearGradient id="paint0_linear_127_638" x1="13.9821" y1="23.3615" x2="4.49436" y2="23.9475" gradientUnits="userSpaceOnUse">
<stop offset="0.1464" stop-color="#D24D39"/>
<stop offset="0.4996" stop-color="#EB6D4E"/>
<stop offset="1" stop-color="#EE8466"/>
</linearGradient>
<linearGradient id="paint1_linear_127_638" x1="34.1746" y1="24.915" x2="42.8732" y2="25.1337" gradientUnits="userSpaceOnUse">
<stop offset="0.1054" stop-color="#006DB5"/>
<stop offset="0.5285" stop-color="#0098CC"/>
<stop offset="1" stop-color="#3CA0CC"/>
</linearGradient>
<linearGradient id="paint2_linear_127_638" x1="23.853" y1="29.7673" x2="39.7022" y2="8.01313" gradientUnits="userSpaceOnUse">
<stop stop-color="#00599F"/>
<stop offset="0.4685" stop-color="#0098CC"/>
<stop offset="1" stop-color="#3CA0CC"/>
</linearGradient>
<linearGradient id="paint3_linear_127_638" x1="48.67" y1="8.47898" x2="26.5153" y2="16.5758" gradientUnits="userSpaceOnUse">
<stop stop-color="#D7E7AF"/>
<stop offset="0.9516" stop-color="#0098CC" stop-opacity="0"/>
</linearGradient>
<linearGradient id="paint4_linear_127_638" x1="36.6036" y1="2.93835" x2="36.8241" y2="11.4291" gradientUnits="userSpaceOnUse">
<stop offset="0.1054" stop-color="#006DB5"/>
<stop offset="1" stop-color="#3CA0CC" stop-opacity="0"/>
</linearGradient>
<linearGradient id="paint5_linear_127_638" x1="36.7491" y1="5.02713" x2="34.6531" y2="15.5574" gradientUnits="userSpaceOnUse">
<stop offset="0.1054" stop-color="#006DB5"/>
<stop offset="1" stop-color="#3CA0CC" stop-opacity="0"/>
</linearGradient>
<linearGradient id="paint6_linear_127_638" x1="27.2677" y1="23.3542" x2="28.8131" y2="29.8559" gradientUnits="userSpaceOnUse">
<stop stop-color="#00599F"/>
<stop offset="1" stop-color="#00599F" stop-opacity="0"/>
</linearGradient>
<linearGradient id="paint7_linear_127_638" x1="25.4186" y1="26.0453" x2="35.2713" y2="19.7538" gradientUnits="userSpaceOnUse">
<stop stop-color="#00599F"/>
<stop offset="0.7389" stop-color="#0098CC"/>
<stop offset="1" stop-color="#3CA0CC"/>
</linearGradient>
<linearGradient id="paint8_linear_127_638" x1="22.5828" y1="29.4166" x2="8.28276" y2="4.91591" gradientUnits="userSpaceOnUse">
<stop stop-color="#D24D39"/>
<stop offset="0.2874" stop-color="#EB6D4E"/>
<stop offset="1" stop-color="#EE8466"/>
</linearGradient>
<linearGradient id="paint9_linear_127_638" x1="-3.61984" y1="6.91277" x2="18.7812" y2="12.0349" gradientUnits="userSpaceOnUse">
<stop offset="0.0025" stop-color="#F9BE16"/>
<stop offset="1" stop-color="#EE8466" stop-opacity="0"/>
</linearGradient>
<linearGradient id="paint10_linear_127_638" x1="10.6045" y1="10.4811" x2="10.5493" y2="-1.59341" gradientUnits="userSpaceOnUse">
<stop stop-color="#DB4F3B" stop-opacity="0"/>
<stop offset="1" stop-color="#D24D39"/>
</linearGradient>
<linearGradient id="paint11_linear_127_638" x1="13.5728" y1="16.7219" x2="10.5112" y2="0.0993882" gradientUnits="userSpaceOnUse">
<stop stop-color="#DB4F3B" stop-opacity="0"/>
<stop offset="1" stop-color="#D24D39"/>
</linearGradient>
<linearGradient id="paint12_linear_127_638" x1="22.0827" y1="27.6802" x2="21.1959" y2="18.7813" gradientUnits="userSpaceOnUse">
<stop stop-color="#DB4F3B" stop-opacity="0"/>
<stop offset="1" stop-color="#D24D39"/>
</linearGradient>
<linearGradient id="paint13_linear_127_638" x1="13.9251" y1="20.1803" x2="13.3459" y2="15.7972" gradientUnits="userSpaceOnUse">
<stop stop-color="#DB4F3B" stop-opacity="0"/>
<stop offset="1" stop-color="#D24D39"/>
</linearGradient>
<linearGradient id="paint14_linear_127_638" x1="19.16" y1="19.1215" x2="26.0772" y2="28.7235" gradientUnits="userSpaceOnUse">
<stop offset="0.4836" stop-color="#EB6D4E"/>
<stop offset="1" stop-color="#EE8466"/>
</linearGradient>
<linearGradient id="paint15_linear_127_638" x1="13.4357" y1="14.7264" x2="12.8103" y2="18.661" gradientUnits="userSpaceOnUse">
<stop stop-color="#FBD376" stop-opacity="0"/>
<stop offset="1" stop-color="#E6A000"/>
</linearGradient>
<linearGradient id="paint16_linear_127_638" x1="36.2137" y1="18.6963" x2="31.7178" y2="19.5258" gradientUnits="userSpaceOnUse">
<stop stop-color="#00599F"/>
<stop offset="1" stop-color="#00599F" stop-opacity="0"/>
</linearGradient>
<linearGradient id="paint17_linear_127_638" x1="34.1039" y1="17.4711" x2="34.0218" y2="20.4979" gradientUnits="userSpaceOnUse">
<stop stop-color="#FBD376" stop-opacity="0"/>
<stop offset="1" stop-color="#E6A000"/>
</linearGradient>
<linearGradient id="paint18_linear_127_638" x1="3.6009" y1="26.1122" x2="9.03025" y2="26.1122" gradientUnits="userSpaceOnUse">
<stop stop-color="#FBD376" stop-opacity="0"/>
<stop offset="1" stop-color="#E6A000"/>
</linearGradient>
<linearGradient id="paint19_linear_127_638" x1="40.5687" y1="26.3367" x2="45.5578" y2="26.3367" gradientUnits="userSpaceOnUse">
<stop stop-color="#FBD376" stop-opacity="0"/>
<stop offset="1" stop-color="#E6A000"/>
</linearGradient>
<linearGradient id="paint20_linear_127_638" x1="120.906" y1="27.3905" x2="127.567" y2="9.00406" gradientUnits="userSpaceOnUse">
<stop stop-color="#00E1FF"/>
<stop offset="0.142" stop-color="#668BD5"/>
<stop offset="0.2095" stop-color="#A37290"/>
<stop offset="0.2706" stop-color="#D65D57"/>
<stop offset="0.3" stop-color="#E95541"/>
<stop offset="1" stop-color="#F9BF16"/>
</linearGradient>
</defs>
</svg>
